<?xml version="1.0" encoding="UTF-8"?>
<svg xmlns="http://www.w3.org/2000/svg" xmlns:xlink="http://www.w3.org/1999/xlink" width="32px" height="32px" viewBox="0 0 32 32" version="1.1">
<g id="surface1">
<path style=" stroke:none;fill-rule:nonzero;fill:rgb(0%,0%,0%);fill-opacity:1;" d="M 19.429688 15.363281 C 18.300781 15.738281 17.757812 16.789062 18.101562 17.9375 C 18.320312 18.675781 18.769531 19.082031 19.980469 19.625 C 21.101562 20.132812 21.3125 20.304688 21.3125 20.726562 C 21.3125 21.199219 20.9375 21.46875 20.28125 21.460938 C 19.917969 21.460938 19.789062 21.429688 19.511719 21.28125 C 19.320312 21.175781 19.101562 20.988281 18.988281 20.832031 C 18.882812 20.6875 18.773438 20.574219 18.757812 20.585938 C 18.375 20.78125 17.5625 21.273438 17.5625 21.3125 C 17.5625 21.394531 17.929688 21.867188 18.167969 22.09375 C 19.101562 22.960938 20.980469 23.101562 22.039062 22.367188 C 22.75 21.882812 23.050781 20.820312 22.738281 19.925781 C 22.511719 19.28125 21.945312 18.8125 20.742188 18.28125 C 19.851562 17.886719 19.648438 17.742188 19.554688 17.445312 C 19.414062 16.960938 19.707031 16.601562 20.242188 16.601562 C 20.601562 16.605469 20.886719 16.75 21.082031 17.023438 L 21.226562 17.242188 L 21.800781 16.867188 C 22.117188 16.664062 22.375 16.46875 22.375 16.445312 C 22.375 16.34375 22.007812 15.882812 21.800781 15.726562 C 21.386719 15.414062 21.011719 15.292969 20.375 15.269531 C 19.917969 15.257812 19.699219 15.273438 19.429688 15.363281 Z M 19.429688 15.363281 "/>
<path style=" stroke:none;fill-rule:nonzero;fill:rgb(0%,0%,0%);fill-opacity:1;" d="M 15.1875 18.054688 C 15.1875 21.050781 15.175781 21.199219 14.835938 21.375 C 14.617188 21.5 14.113281 21.476562 13.90625 21.335938 C 13.804688 21.273438 13.65625 21.105469 13.5625 20.957031 L 13.394531 20.695312 L 12.804688 21.042969 C 12.480469 21.238281 12.207031 21.40625 12.195312 21.414062 C 12.125 21.46875 12.367188 21.863281 12.632812 22.132812 C 13 22.507812 13.449219 22.726562 14.03125 22.804688 C 15.136719 22.960938 16.105469 22.539062 16.488281 21.730469 C 16.71875 21.238281 16.757812 20.730469 16.738281 17.96875 L 16.71875 15.34375 L 15.957031 15.324219 L 15.1875 15.304688 Z M 15.1875 18.054688 "/>
</g>
</svg>
